<?xml version="1.0" encoding="utf-8"?>
<!-- Generator: Adobe Illustrator 27.5.0, SVG Export Plug-In . SVG Version: 6.00 Build 0)  -->
<svg version="1.1" id="Layer_1" xmlns="http://www.w3.org/2000/svg" xmlns:xlink="http://www.w3.org/1999/xlink" x="0px" y="0px"
	 viewBox="0 0 121 25" style="enable-background:new 0 0 121 25;" xml:space="preserve">
<style type="text/css">
	.st0{fill-rule:evenodd;clip-rule:evenodd;fill:#159B8E;}
</style>
<path class="st0" d="M13.1,6c0.2,0.1,0.4,0.3,0.5,0.5L15,9.9l3.7,0.3c0.5,0,0.9,0.5,0.9,1.1c0,0.3-0.1,0.5-0.3,0.6l-2.8,2.5l0.8,3.7
	c0.1,0.5-0.2,1.1-0.7,1.2c-0.2,0.1-0.5,0-0.7-0.1l-3.2-1.9l-3.2,1.9c-0.5,0.3-1.1,0.1-1.3-0.3C8,18.6,7.9,18.3,8,18.1l0.8-3.7L6,12
	c-0.4-0.4-0.4-1-0.1-1.4c0.2-0.2,0.4-0.3,0.6-0.3l3.7-0.3l1.5-3.4C12,6,12.6,5.7,13.1,6z"/>
<path class="st0" d="M37.1,6c0.2,0.1,0.4,0.3,0.5,0.5L39,9.9l3.7,0.3c0.5,0,0.9,0.5,0.9,1.1c0,0.3-0.1,0.5-0.3,0.6l-2.8,2.5l0.8,3.7
	c0.1,0.5-0.2,1.1-0.7,1.2c-0.2,0.1-0.5,0-0.7-0.1l-3.2-1.9l-3.2,1.9c-0.5,0.3-1.1,0.1-1.3-0.3c-0.1-0.2-0.2-0.5-0.1-0.7l0.8-3.7
	L30,12c-0.4-0.4-0.4-1-0.1-1.4c0.2-0.2,0.4-0.3,0.6-0.3l3.7-0.3l1.5-3.4C36,6,36.6,5.7,37.1,6z"/>
<path class="st0" d="M61.1,6c0.2,0.1,0.4,0.3,0.5,0.5L63,9.9l3.7,0.3c0.5,0,0.9,0.5,0.9,1.1c0,0.3-0.1,0.5-0.3,0.6l-2.8,2.5l0.8,3.7
	c0.1,0.5-0.2,1.1-0.7,1.2c-0.2,0.1-0.5,0-0.7-0.1l-3.2-1.9l-3.2,1.9c-0.5,0.3-1.1,0.1-1.3-0.3c-0.1-0.2-0.2-0.5-0.1-0.7l0.8-3.7
	L54,12c-0.4-0.4-0.4-1-0.1-1.4c0.2-0.2,0.4-0.3,0.6-0.3l3.7-0.3l1.5-3.4C60,6,60.6,5.7,61.1,6z"/>
<path class="st0" d="M85.1,6c0.2,0.1,0.4,0.3,0.5,0.5L87,9.9l3.7,0.3c0.5,0,0.9,0.5,0.9,1.1c0,0.3-0.1,0.5-0.3,0.6l-2.8,2.5l0.8,3.7
	c0.1,0.5-0.2,1.1-0.7,1.2c-0.2,0.1-0.5,0-0.7-0.1l-3.2-1.9l-3.2,1.9c-0.5,0.3-1.1,0.1-1.3-0.3c-0.1-0.2-0.2-0.5-0.1-0.7l0.8-3.7
	L78,12c-0.4-0.4-0.4-1-0.1-1.4c0.2-0.2,0.4-0.3,0.6-0.3l3.7-0.3l1.5-3.4C84,6,84.6,5.7,85.1,6z"/>
<path class="st0" d="M109.1,6c0.2,0.1,0.4,0.3,0.5,0.5l1.5,3.4l3.7,0.3c0.5,0,0.9,0.5,0.9,1.1c0,0.3-0.1,0.5-0.3,0.6l-2.8,2.5
	l0.8,3.7c0.1,0.5-0.2,1.1-0.7,1.2c-0.2,0.1-0.5,0-0.7-0.1l-3.2-1.9l-3.2,1.9c-0.5,0.3-1.1,0.1-1.3-0.3c-0.1-0.2-0.2-0.5-0.1-0.7
	l0.8-3.7L102,12c-0.4-0.4-0.4-1-0.1-1.4c0.2-0.2,0.4-0.3,0.6-0.3l3.7-0.3l1.5-3.4C108,6,108.6,5.7,109.1,6z"/>
</svg>
